<svg xmlns="http://www.w3.org/2000/svg" viewBox="0 0 390 80" role="img" aria-labelledby="title description">
  <title id="title">Achilles Store monocromática</title>
  <desc id="description">Assinatura monocromática provisória para gravação e aplicações de uma cor.</desc>
  <g fill="#111315">
    <path fill-rule="evenodd" d="M39 3 68 14v22c0 20-11 33-29 41C21 69 10 56 10 36V14L39 3Zm0 7L16 19v17c0 16 8 27 23 34 15-7 23-18 23-34V19L39 10Z"/>
    <path fill-rule="evenodd" d="m24 57 15-36 15 36-6 2-4-10H34l-4 10-6-2Zm13-15h4l-2-7-2 7Z"/>
    <text x="92" y="42" font-family="Arial, sans-serif" font-size="27" font-weight="800" letter-spacing="2">ACHILLES</text>
    <text x="94" y="63" font-family="Arial, sans-serif" font-size="13" font-weight="700" letter-spacing="8">STORE</text>
  </g>
</svg>
